<svg width="24" height="24" viewBox="0 0 24 24" fill="none" xmlns="http://www.w3.org/2000/svg">
<g clip-path="url(#clip0)">
<path d="M12 0C7.06504 0 3.05025 4.01641 3.05025 8.9533C3.05025 16.3089 11.1092 23.4911 11.4524 23.7933C11.6088 23.9311 11.8044 24.0001 12 24.0001C12.1956 24.0001 12.3912 23.9312 12.5477 23.7933C12.8907 23.4912 20.9497 16.309 20.9497 8.9533C20.9497 4.01641 16.9349 0 12 0ZM12 22.0355C10.2183 20.309 4.70763 14.518 4.70763 8.9533C4.70763 4.93035 7.97898 1.65738 12 1.65738C16.021 1.65738 19.2924 4.93035 19.2924 8.9533C19.2924 14.5179 13.7817 20.3089 12 22.0355Z" fill="white"/>
<path d="M12 4.78247C9.7153 4.78247 7.85663 6.6535 7.85663 8.9533C7.85663 11.2532 9.7153 13.1241 12 13.1241C14.2847 13.1241 16.1433 11.2532 16.1433 8.9533C16.1433 6.6535 14.2847 4.78247 12 4.78247ZM12 11.4668C10.6292 11.4668 9.51392 10.3392 9.51392 8.9533C9.51392 7.56744 10.6292 6.43984 12 6.43984C13.3708 6.43984 14.486 7.56736 14.486 8.9533C14.486 10.3392 13.3708 11.4668 12 11.4668Z" fill="white"/>
</g>
<defs>
<clipPath id="clip0">
<rect width="24" height="24" fill="white"/>
</clipPath>
</defs>
</svg>
