<svg width="30" height="30" viewBox="0 0 30 30" fill="none" xmlns="http://www.w3.org/2000/svg">
<path d="M15 2.5C21.9036 2.5 27.5 8.09644 27.5 15C27.5 21.9036 21.9036 27.5 15 27.5C8.09644 27.5 2.5 21.9036 2.5 15C2.5 8.09644 8.09644 2.5 15 2.5ZM15 4.0625C8.95938 4.0625 4.0625 8.95938 4.0625 15C4.0625 21.0406 8.95938 25.9375 15 25.9375C21.0406 25.9375 25.9375 21.0406 25.9375 15C25.9375 8.95938 21.0406 4.0625 15 4.0625ZM15.1562 20C15.674 20 16.0938 20.4197 16.0938 20.9375C16.0938 21.4553 15.674 21.875 15.1562 21.875C14.6385 21.875 14.2188 21.4553 14.2188 20.9375C14.2188 20.4197 14.6385 20 15.1562 20ZM15.1562 8.125C17.2592 8.125 19.0625 9.92631 19.0625 12.0305C19.0638 13.3557 18.5821 14.1995 17.3885 15.4858L16.7541 16.1649C16.1151 16.8768 15.8621 17.3282 15.8381 17.8621L15.8362 17.9632L15.8327 18.0431L15.8214 18.1208C15.7511 18.4773 15.4381 18.7473 15.0605 18.7501C14.6291 18.7531 14.2768 18.4058 14.2737 17.9743C14.2657 16.8564 14.6967 16.0917 15.7163 14.9837L16.3584 14.2976C17.207 13.3648 17.5008 12.8144 17.5 12.0312C17.5 10.7896 16.3966 9.6875 15.1562 9.6875C13.9567 9.6875 12.8839 10.721 12.8159 11.9117L12.8084 12.1111C12.7684 12.5051 12.4357 12.8125 12.0312 12.8125C11.5997 12.8125 11.25 12.4628 11.25 12.0312C11.25 9.92787 13.054 8.125 15.1562 8.125Z" fill="#212121"/>
</svg>
